<svg width="18" height="17" viewBox="0 0 18 17" fill="none" xmlns="http://www.w3.org/2000/svg">
<path d="M13.0379 0.523804C15.6213 0.523804 17.7231 2.54132 17.7231 5.02116V12.2169C17.7231 14.6968 15.6213 16.7143 13.0379 16.7143H5.54138C2.95791 16.7143 0.856087 14.6968 0.856087 12.2169V5.02116C0.856087 2.54132 2.95791 0.523804 5.54138 0.523804H13.0379ZM13.0379 2.32275H5.54138C3.99149 2.32275 2.7302 3.53343 2.7302 5.02116V12.2169C2.7302 13.7046 3.99149 14.9153 5.54138 14.9153H13.0379C14.5877 14.9153 15.849 13.7046 15.849 12.2169V5.02116C15.849 3.53343 14.5877 2.32275 13.0379 2.32275ZM4.60432 3.22222C4.85285 3.22222 5.09119 3.31698 5.26692 3.48567C5.44266 3.65435 5.54138 3.88313 5.54138 4.12169C5.54138 4.36024 5.44266 4.58903 5.26692 4.75771C5.09119 4.92639 4.85285 5.02116 4.60432 5.02116C4.3558 5.02116 4.11745 4.92639 3.94172 4.75771C3.76599 4.58903 3.66726 4.36024 3.66726 4.12169C3.66726 3.88313 3.76599 3.65435 3.94172 3.48567C4.11745 3.31698 4.3558 3.22222 4.60432 3.22222ZM9.28962 4.12169C11.8731 4.12169 13.9749 6.1392 13.9749 8.61904C13.9749 11.0989 11.8731 13.1164 9.28962 13.1164C6.70615 13.1164 4.60432 11.0989 4.60432 8.61904C4.60432 6.1392 6.70615 4.12169 9.28962 4.12169ZM9.28962 5.92063C7.73972 5.92063 6.47844 7.13132 6.47844 8.61904C6.47844 10.1068 7.73972 11.3175 9.28962 11.3175C10.8395 11.3175 12.1008 10.1068 12.1008 8.61904C12.1008 7.13132 10.8395 5.92063 9.28962 5.92063Z" fill="white"/>
</svg>
